<svg width="60" height="60" viewBox="0 0 60 60" xmlns="http://www.w3.org/2000/svg">
  <path d="M54.826 27.948c.545.012 1.09.018 1.634.018.545 0 1.09-.006 1.635-.018.825-.018 1.48-.68 1.48-1.503 0-.824-.655-1.485-1.48-1.503-.545-.012-1.09-.018-1.635-.018-.544 0-1.09.006-1.634.018-.825.018-1.48.68-1.48 1.503 0 .822.655 1.485 1.48 1.503zm-49.652 0c.545.012 1.09.018 1.634.018.545 0 1.09-.006 1.635-.018.825-.018 1.48-.68 1.48-1.503 0-.824-.655-1.485-1.48-1.503-.545-.012-1.09-.018-1.635-.018-.544 0-1.09.006-1.634.018-.825.018-1.48.68-1.48 1.503 0 .822.655 1.485 1.48 1.503zm22.413 22.413c.012.545.018 1.09.018 1.634 0 .545-.006 1.09-.018 1.635-.018.825-.68 1.48-1.503 1.48-.824 0-1.485-.655-1.503-1.48-.012-.545-.018-1.09-.018-1.635 0-.544.006-1.09.018-1.634.018-.825.68-1.48 1.503-1.48.822 0 1.485.655 1.503 1.48zm0-44.826c.012.545.018 1.09.018 1.634 0 .545-.006 1.09-.018 1.635-.018.825-.68 1.48-1.503 1.48-.824 0-1.485-.655-1.503-1.48-.012-.545-.018-1.09-.018-1.635 0-.544.006-1.09.018-1.634.018-.825.68-1.48 1.503-1.48.822 0 1.485.655 1.503 1.48zM30 60c.273 0 .546-.003.818-.01.825-.018 1.48-.684 1.48-1.507 0-.823-.655-1.478-1.48-1.496-.272-.006-.545-.01-.818-.01-.272 0-.545.004-.818.01-.825.018-1.48.673-1.48 1.496 0 .823.655 1.49 1.48 1.507.272.007.545.01.818.01zM30 0c.273 0 .546.003.818.01.825.018 1.48.684 1.48 1.507 0 .823-.655 1.478-1.48 1.496-.272.006-.545.01-.818.01-.272 0-.545-.004-.818-.01-.825-.018-1.48-.673-1.48-1.496 0-.823.655-1.49 1.48-1.507.272-.007.545-.01.818-.01zM0 30c0 .273.003.546.01.818.018.825.684 1.48 1.507 1.48.823 0 1.478-.655 1.496-1.48.006-.272.01-.545.01-.818 0-.272-.004-.545-.01-.818-.018-.825-.673-1.48-1.496-1.48-.823 0-1.49.655-1.507 1.48-.007.272-.01.545-.01.818zm60 0c0 .273-.003.546-.01.818-.018.825-.684 1.48-1.507 1.48-.823 0-1.478-.655-1.496-1.48-.006-.272-.01-.545-.01-.818 0-.272.004-.545.01-.818.018-.825.673-1.48 1.496-1.48.823 0 1.49.655 1.507 1.48.007.272.01.545.01.818z" fill="#1e293b" fill-opacity=".4" fill-rule="evenodd"/>
</svg>
